Coordinates
version=1
nRows=16
nColumns=40
inDegrees=yes

Units are S.I. units (second, meters, Newtons, ...)
Angles are in degrees.

endheader
time	pelvis_tilt	pelvis_list	pelvis_rotation	pelvis_tx	pelvis_ty	pelvis_tz	hip_flexion_r	hip_adduction_r	hip_rotation_r	knee_angle_r	knee_angle_r_beta	ankle_angle_r	subtalar_angle_r	mtp_angle_r	hip_flexion_l	hip_adduction_l	hip_rotation_l	knee_angle_l	knee_angle_l_beta	ankle_angle_l	subtalar_angle_l	mtp_angle_l	lumbar_extension	lumbar_bending	lumbar_rotation	arm_flex_r	arm_add_r	arm_rot_r	elbow_flex_r	pro_sup_r	wrist_flex_r	wrist_dev_r	arm_flex_l	arm_add_l	arm_rot_l	elbow_flex_l	pro_sup_l	wrist_flex_l	wrist_dev_l
      0.00000000	     -1.14488263	      1.98061484	     -1.79462449	     -1.15423408	      0.90052402	      1.40304737	     16.42651878	     -4.49750602	     -2.34947977	    -58.68049076	     -1.02416777	     -3.98720742	    -11.49752983	      0.60847931	      6.96793646	     -4.98468623	     10.75416454	    -13.58929659	     -0.23717797	      5.57609997	     -4.65505185	     -3.09329509	     -9.34204446	     -2.75267692	      1.83903255	      9.15711010	     -9.71245691	     20.96046277	     13.84669550	     89.95437384	      0.00000000	      0.00000000	      9.00112299	     11.25955102	    -22.15587675	     22.44326054	     89.95437384	      0.00000000	      0.00000000
      0.01000000	     -1.00737879	      1.77106088	     -1.93221846	     -1.14832740	      0.90102632	      1.40272843	     17.36715776	     -4.21521173	     -2.41319937	    -58.72775751	     -1.02499273	     -3.36224692	    -11.58864911	      0.61553112	      6.30584419	     -4.82419332	     10.65957924	    -13.49789033	     -0.23558263	      5.85466404	     -4.69520500	     -3.12461700	     -9.33259296	     -2.44193341	      1.57947055	      8.98862302	     -9.79862944	     20.91424879	     13.77604770	     89.95437384	      0.00000000	      0.00000000	      9.86972361	     11.39555047	    -22.05613684	     22.39918417	     89.95437384	      0.00000000	      0.00000000
      0.02000000	     -0.94559776	      1.58475799	     -1.94009605	     -1.14270250	      0.90155899	      1.40213407	     18.28939539	     -3.96538793	     -2.53098753	    -58.46594074	     -1.02042317	     -2.61944128	    -11.67532861	      0.62960946	      5.72384347	     -4.67849906	     10.66128346	    -13.32523887	     -0.23256929	      6.07955253	     -4.78238093	     -3.14807953	     -9.34275769	     -2.14924899	      1.26157097	      8.79817894	     -9.95621671	     20.79399565	     13.84601155	     89.95437384	      0.00000000	      0.00000000	     10.71025695	     11.54585156	    -21.89156931	     22.50775634	     89.95437384	      0.00000000	      0.00000000
      0.03000000	     -0.90361551	      1.56975793	     -1.92588365	     -1.13764113	      0.90190502	      1.40163306	     19.32586738	     -3.90958306	     -2.63425036	    -58.16495188	     -1.01516992	     -2.44088493	    -11.36650315	      0.61718654	      5.42334051	     -4.69128219	     10.70476255	    -13.56731134	     -0.23679425	      6.05440786	     -4.66518343	     -3.10667010	     -9.39677682	     -2.05241357	      0.90097516	      8.60865569	    -10.06753208	     20.69456487	     14.18091509	     89.95437384	      0.00000000	      0.00000000	     11.54514794	     11.82527986	    -21.68241297	     22.91587001	     89.95437384	      0.00000000	      0.00000000
      0.04000000	     -0.25042856	      1.04952985	     -1.99795261	     -1.13099539	      0.90319109	      1.40134737	     19.22108745	     -3.23909413	     -2.84954783	    -57.23133251	     -0.99887519	     -1.20776203	    -11.58292142	      0.85827736	      3.80399259	     -4.21553251	     10.72954033	    -12.80896954	     -0.22355869	      6.43968915	     -5.21858580	     -3.20479670	     -9.88216051	     -1.38654414	      0.69964783	      8.40510530	    -10.19924536	     20.33679895	     14.23633299	     89.95437384	      0.00000000	      0.00000000	     12.48125904	     11.74420808	    -21.38933890	     22.46452377	     89.95437384	      0.00000000	      0.00000000
      0.05000000	     -0.29658277	      0.98450368	     -1.98121688	     -1.12550085	      0.90319677	      1.40078345	     20.22564924	     -3.16146666	     -3.07336865	    -56.57759415	     -0.98746530	     -0.82086989	    -11.43472050	      0.85740798	      3.42078069	     -4.19967271	     10.82253073	    -12.73829639	     -0.22232521	      6.64665051	     -5.24558901	     -3.21134383	     -9.73591683	     -1.19675839	      0.33959784	      8.24786626	    -10.27927916	     20.28424460	     14.35702268	     89.95437384	      0.00000000	      0.00000000	     13.22598112	     11.94401737	    -21.24832662	     22.61532135	     89.95437384	      0.00000000	      0.00000000
      0.06000000	     -0.31668326	      0.86537568	     -1.96113380	     -1.11995060	      0.90317155	      1.40028927	     21.10826531	     -3.02220181	     -3.36925392	    -55.68736395	     -0.97192785	     -0.31328813	    -11.28914443	      0.84343777	      2.97429465	     -4.12584967	     10.83860857	    -12.62473099	     -0.22034312	      6.90137848	     -5.32221081	     -3.23428749	     -9.59616975	     -0.96388330	      0.00681548	      8.07776775	    -10.36346877	     20.21796422	     14.46168660	     89.95437384	      0.00000000	      0.00000000	     13.94534922	     12.12356463	    -21.06136681	     22.78037692	     89.95437384	      0.00000000	      0.00000000
      0.07000000	      0.17520948	      0.39602459	     -1.79481472	     -1.11416988	      0.90399769	      1.39986562	     21.17585550	     -2.49881806	     -3.84362007	    -54.42795749	     -0.94994706	      0.46873620	    -11.01363205	      0.82419930	      1.84063057	     -3.67776190	     10.53463599	    -12.36508874	     -0.21581151	      7.22687002	     -5.80246439	     -3.32350630	    -10.08496713	     -0.33631424	     -0.39736968	      7.92441623	    -10.51026465	     20.04664060	     14.79912035	     89.95437384	      0.00000000	      0.00000000	     14.82776613	     12.13078025	    -20.57277861	     22.68103310	     89.95437384	      0.00000000	      0.00000000
      0.08000000	      0.41793686	      0.15824448	     -1.76590499	     -1.10844496	      0.90429048	      1.39945775	     21.55437014	     -2.27375673	     -4.20935788	    -53.09372245	     -0.92666027	      0.82772234	    -10.59293174	      0.83540677	      1.01882284	     -3.46475122	     10.73170618	    -12.11094916	     -0.21137594	      7.41320626	     -6.03698259	     -3.33287411	    -10.27974577	      0.04523075	     -0.74949307	      7.82403107	    -10.57426921	     19.85987404	     14.98878466	     89.95437384	      0.00000000	      0.00000000	     15.45372993	     12.28196363	    -20.08365770	     22.95651325	     89.95437384	      0.00000000	      0.00000000
      0.09000000	      0.32006493	      0.22690125	     -1.74581961	     -1.10303625	      0.90392128	      1.39895701	     22.48273056	     -2.38928587	     -4.52042175	    -51.94059034	     -0.90653432	      1.02950303	    -10.36687113	      0.84442099	      0.73382452	     -3.57729650	     10.88569018	    -12.10078320	     -0.21119851	      7.59315530	     -6.03186283	     -3.33154095	    -10.10579172	      0.08440830	     -1.04659273	      7.63011320	    -10.63751889	     19.77555665	     15.18032474	     89.95437384	      0.00000000	      0.00000000	     16.06989188	     12.48104090	    -19.88623731	     23.30781102	     89.95437384	      0.00000000	      0.00000000
      0.10000000	      0.28770419	      0.16979861	     -1.72412871	     -1.09748500	      0.90359860	      1.39864953	     23.18850197	     -2.35023920	     -4.89060001	    -50.52008530	     -0.88174183	      1.31543989	    -10.13985703	      0.84464672	      0.28909420	     -3.55275994	     10.97745387	    -11.96536739	     -0.20883506	      7.86568876	     -6.13467598	     -3.35572600	     -9.97503700	      0.25337974	     -1.40300900	      7.48128906	    -10.65359709	     19.67280124	     15.37587107	     89.95437384	      0.00000000	      0.00000000	     16.63399663	     12.68147994	    -19.65467159	     23.57016993	     89.95437384	      0.00000000	      0.00000000
      0.11000000	      1.25671467	     -0.43277293	     -1.51625746	     -1.09112264	      0.90501474	      1.39844832	     22.29374233	     -1.79087142	     -5.63970934	    -48.38766811	     -0.84452413	      1.61859922	     -9.68268541	      0.79619239	     -1.49393347	     -2.90885667	     11.14312020	    -11.50826302	     -0.20085708	      7.89036838	     -7.01479115	     -3.46724152	    -11.00238041	      1.03217331	     -1.81435952	      7.38290662	    -10.71716169	     19.04917318	     15.73695338	     89.95437384	      0.00000000	      0.00000000	     17.31347169	     12.68481176	    -18.87530654	     23.76421521	     89.95437384	      0.00000000	      0.00000000
      0.12000000	      1.23510361	     -0.60928580	     -1.45840957	     -1.08562723	      0.90459058	      1.39839460	     22.84619718	     -1.59396620	     -6.00509796	    -46.70613914	     -0.81517591	      1.92860266	     -9.25283683	      0.75935341	     -1.93138711	     -2.72487139	     11.10795553	    -11.41340976	     -0.19920158	      8.24100785	     -7.29141462	     -3.54452364	    -10.94171932	      1.31305968	     -2.03737167	      7.19212689	    -10.72210145	     18.84014940	     15.93779020	     89.95437384	      0.00000000	      0.00000000	     17.87501562	     12.85027332	    -18.70141513	     24.19361477	     89.95437384	      0.00000000	      0.00000000
      0.13000000	      1.03030582	     -0.40438065	     -1.57475583	     -1.08028683	      0.90376785	      1.39812479	     23.72949841	     -1.88479362	     -6.39578390	    -45.16686668	     -0.78831054	      2.07420161	     -9.00270322	      0.77978075	     -2.08273803	     -3.00031938	     11.38150494	    -11.43941703	     -0.19965549	      8.41132803	     -7.19483861	     -3.53996594	    -10.65718132	      1.21455723	     -2.26625728	      7.04520643	    -10.73007293	     18.73137029	     16.18102725	     89.95437384	      0.00000000	      0.00000000	     18.32012887	     13.04308035	    -18.58151645	     24.56837693	     89.95437384	      0.00000000	      0.00000000
      0.14000000	      1.42655432	     -0.85036525	     -1.26057923	     -1.07457170	      0.90401903	      1.39784057	     23.45371938	     -1.53222776	     -7.20142068	    -42.90005195	     -0.74874716	      2.04019800	     -8.21867398	      0.73235601	     -2.99251297	     -2.51550466	     11.13097005	    -11.35941707	     -0.19825923	      8.76716275	     -7.46389213	     -3.66420473	    -11.07045436	      1.85391678	     -2.79594173	      6.95554608	    -10.68306149	     18.04583409	     16.44993944	     89.95437384	      0.00000000	      0.00000000	     18.85797701	     13.18416150	    -18.46478042	     24.89983411	     89.95437384	      0.00000000	      0.00000000
      0.15000000	      1.21904789	     -0.61362374	     -1.36993128	     -1.06913232	      0.90302915	      1.39780974	     24.24857308	     -1.82374382	     -7.62539507	    -41.23425497	     -0.71967351	      2.10258158	     -7.94107183	      0.75326973	     -3.16768487	     -2.80853667	     11.31719339	    -11.34560821	     -0.19801822	      8.97242249	     -7.42689447	     -3.67868562	    -10.79596541	      1.68937960	     -2.91813371	      6.76297325	    -10.64524689	     17.89924542	     16.63139431	     89.95437384	      0.00000000	      0.00000000	     19.32393814	     13.32587087	    -18.39477828	     25.26537116	     89.95437384	      0.00000000	      0.00000000
